<?xml version="1.0" encoding="UTF-8"?>
<svg width="206px" height="164px" viewBox="0 0 206 164" version="1.1" xmlns="http://www.w3.org/2000/svg" xmlns:xlink="http://www.w3.org/1999/xlink">
    <!-- Generator: Sketch 51.2 (57519) - http://www.bohemiancoding.com/sketch -->
    <title>Combined Shape</title>
    <desc>Created with Sketch.</desc>
    <defs></defs>
    <g id="Page-1" stroke="none" stroke-width="1" fill="none" fill-rule="evenodd">
        <g id="standard-webpage" transform="translate(-212.000000, -882.000000)" fill="#D0021B" fill-rule="nonzero">
            <path d="M297.275371,943.186249 C290.284812,947.677219 281.25063,950.524238 271.316859,950.895269 L315.631626,1016.59461 L387.369045,928.006279 C384.824242,917.120436 374.879789,909 363,909 C349.192881,909 338,919.969024 338,933.5 C338,934.343981 338.043546,935.177994 338.128556,936 L310.620835,936 L306.298016,938.495781 C306.024925,938.676942 305.735204,938.844324 305.43079,938.996474 L297.5,943.575318 L297.275371,943.186249 Z M317.939514,1046 L301.613709,1046 L240.064663,954.749787 L240.064663,1045.18801 L212,1045.18801 L212,889 L240.064663,889 L240.064663,897.314158 C247.670674,892.156083 257.877095,889 269.097074,889 C292.259878,889 311.103051,902.450752 311.665036,919.198263 C318.729201,897.601232 339.042669,882 363,882 C392.633371,882 416.69171,905.869544 416.997061,935.430675 L417.232057,935.620971 L416.999924,935.907632 C416.999974,935.938416 417,935.969205 417,936 L416.925125,936 L350.522835,1018 L406,1018 L406,1046 L317.939514,1046 Z M265.226086,932.086348 C274.312108,932.086348 281.677785,926.459977 281.677785,919.519497 C281.677785,912.579016 274.312108,906.952645 265.226086,906.952645 C256.140063,906.952645 248.774387,912.579016 248.774387,919.519497 C248.774387,926.459977 256.140063,932.086348 265.226086,932.086348 Z" id="Combined-Shape"></path>
        </g>
    </g>
</svg>